<mxfile host="Electron" modified="2023-12-04T07:30:07.930Z" agent="Mozilla/5.0 (Windows NT 10.0; Win64; x64) AppleWebKit/537.36 (KHTML, like Gecko) draw.io/22.1.2 Chrome/114.0.5735.289 Electron/25.9.4 Safari/537.36" etag="hD0YIAG0XwYyJVkw6qpu" version="22.1.2" type="device">
  <diagram id="C5RBs43oDa-KdzZeNtuy" name="Page-1">
    <mxGraphModel dx="1578" dy="1115" grid="1" gridSize="10" guides="1" tooltips="1" connect="1" arrows="1" fold="1" page="1" pageScale="1" pageWidth="1169" pageHeight="827" math="0" shadow="0">
      <root>
        <mxCell id="WIyWlLk6GJQsqaUBKTNV-0" />
        <mxCell id="WIyWlLk6GJQsqaUBKTNV-1" parent="WIyWlLk6GJQsqaUBKTNV-0" />
        <mxCell id="wkjAaEU14kWa63xnrsrx-3" style="rounded=0;orthogonalLoop=1;jettySize=auto;html=1;exitX=1;exitY=1;exitDx=0;exitDy=0;entryX=0;entryY=0.5;entryDx=0;entryDy=0;" parent="WIyWlLk6GJQsqaUBKTNV-1" source="W3gyHLTYfsSeEQZxvCmy-68" target="wkjAaEU14kWa63xnrsrx-0" edge="1">
          <mxGeometry relative="1" as="geometry" />
        </mxCell>
        <mxCell id="wkjAaEU14kWa63xnrsrx-5" value="登录/注册指令" style="edgeLabel;html=1;align=center;verticalAlign=middle;resizable=0;points=[];" parent="wkjAaEU14kWa63xnrsrx-3" vertex="1" connectable="0">
          <mxGeometry x="-0.1237" relative="1" as="geometry">
            <mxPoint x="5" y="5" as="offset" />
          </mxGeometry>
        </mxCell>
        <mxCell id="wkjAaEU14kWa63xnrsrx-6" style="rounded=0;orthogonalLoop=1;jettySize=auto;html=1;exitX=1;exitY=0;exitDx=0;exitDy=0;entryX=0;entryY=0.5;entryDx=0;entryDy=0;" parent="WIyWlLk6GJQsqaUBKTNV-1" source="W3gyHLTYfsSeEQZxvCmy-68" target="wkjAaEU14kWa63xnrsrx-1" edge="1">
          <mxGeometry relative="1" as="geometry" />
        </mxCell>
        <mxCell id="wkjAaEU14kWa63xnrsrx-7" value="其他指令" style="edgeLabel;html=1;align=center;verticalAlign=middle;resizable=0;points=[];" parent="wkjAaEU14kWa63xnrsrx-6" vertex="1" connectable="0">
          <mxGeometry x="0.0711" y="-2" relative="1" as="geometry">
            <mxPoint x="-12" y="8" as="offset" />
          </mxGeometry>
        </mxCell>
        <mxCell id="W3gyHLTYfsSeEQZxvCmy-68" value="&lt;span style=&quot;font-size: 16px;&quot;&gt;检查指令语法&lt;/span&gt;" style="ellipse;whiteSpace=wrap;html=1;" parent="WIyWlLk6GJQsqaUBKTNV-1" vertex="1">
          <mxGeometry x="304" y="437" width="120" height="80" as="geometry" />
        </mxCell>
        <mxCell id="wkjAaEU14kWa63xnrsrx-8" value="" style="edgeStyle=orthogonalEdgeStyle;rounded=0;orthogonalLoop=1;jettySize=auto;html=1;" parent="WIyWlLk6GJQsqaUBKTNV-1" source="wkjAaEU14kWa63xnrsrx-0" target="wkjAaEU14kWa63xnrsrx-4" edge="1">
          <mxGeometry relative="1" as="geometry" />
        </mxCell>
        <mxCell id="wkjAaEU14kWa63xnrsrx-9" value="更改" style="edgeLabel;html=1;align=center;verticalAlign=middle;resizable=0;points=[];" parent="wkjAaEU14kWa63xnrsrx-8" vertex="1" connectable="0">
          <mxGeometry x="-0.0356" relative="1" as="geometry">
            <mxPoint as="offset" />
          </mxGeometry>
        </mxCell>
        <mxCell id="wkjAaEU14kWa63xnrsrx-0" value="&lt;span style=&quot;font-size: 16px;&quot;&gt;更新账户状态&lt;/span&gt;" style="ellipse;whiteSpace=wrap;html=1;" parent="WIyWlLk6GJQsqaUBKTNV-1" vertex="1">
          <mxGeometry x="552.5" y="604" width="120" height="80" as="geometry" />
        </mxCell>
        <mxCell id="wkjAaEU14kWa63xnrsrx-14" style="edgeStyle=orthogonalEdgeStyle;rounded=0;orthogonalLoop=1;jettySize=auto;html=1;exitX=1;exitY=0.5;exitDx=0;exitDy=0;" parent="WIyWlLk6GJQsqaUBKTNV-1" source="wkjAaEU14kWa63xnrsrx-1" target="wkjAaEU14kWa63xnrsrx-2" edge="1">
          <mxGeometry relative="1" as="geometry" />
        </mxCell>
        <mxCell id="wkjAaEU14kWa63xnrsrx-17" value="指令" style="edgeLabel;html=1;align=center;verticalAlign=middle;resizable=0;points=[];" parent="wkjAaEU14kWa63xnrsrx-14" vertex="1" connectable="0">
          <mxGeometry x="0.0289" relative="1" as="geometry">
            <mxPoint x="-3" as="offset" />
          </mxGeometry>
        </mxCell>
        <mxCell id="wkjAaEU14kWa63xnrsrx-1" value="&lt;span style=&quot;font-size: 16px;&quot;&gt;检查用户权限&lt;/span&gt;" style="ellipse;whiteSpace=wrap;html=1;" parent="WIyWlLk6GJQsqaUBKTNV-1" vertex="1">
          <mxGeometry x="552.5" y="274" width="120" height="80" as="geometry" />
        </mxCell>
        <mxCell id="wkjAaEU14kWa63xnrsrx-2" value="&lt;span style=&quot;font-size: 16px;&quot;&gt;分派指令&lt;/span&gt;" style="ellipse;whiteSpace=wrap;html=1;" parent="WIyWlLk6GJQsqaUBKTNV-1" vertex="1">
          <mxGeometry x="814" y="274" width="120" height="80" as="geometry" />
        </mxCell>
        <mxCell id="wkjAaEU14kWa63xnrsrx-10" value="" style="edgeStyle=orthogonalEdgeStyle;rounded=0;orthogonalLoop=1;jettySize=auto;html=1;" parent="WIyWlLk6GJQsqaUBKTNV-1" source="wkjAaEU14kWa63xnrsrx-4" target="wkjAaEU14kWa63xnrsrx-1" edge="1">
          <mxGeometry relative="1" as="geometry" />
        </mxCell>
        <mxCell id="wkjAaEU14kWa63xnrsrx-11" value="当前账户" style="edgeLabel;html=1;align=center;verticalAlign=middle;resizable=0;points=[];" parent="wkjAaEU14kWa63xnrsrx-10" vertex="1" connectable="0">
          <mxGeometry x="-0.0405" relative="1" as="geometry">
            <mxPoint y="1" as="offset" />
          </mxGeometry>
        </mxCell>
        <mxCell id="wkjAaEU14kWa63xnrsrx-4" value="&lt;font style=&quot;font-size: 16px;&quot;&gt;账户文件&lt;/font&gt;" style="shape=partialRectangle;whiteSpace=wrap;html=1;left=0;right=0;fillColor=none;" parent="WIyWlLk6GJQsqaUBKTNV-1" vertex="1">
          <mxGeometry x="552.5" y="447" width="120" height="60" as="geometry" />
        </mxCell>
        <mxCell id="wkjAaEU14kWa63xnrsrx-15" value="" style="endArrow=classic;html=1;rounded=0;exitX=0.5;exitY=0;exitDx=0;exitDy=0;" parent="WIyWlLk6GJQsqaUBKTNV-1" source="wkjAaEU14kWa63xnrsrx-1" edge="1">
          <mxGeometry width="50" height="50" relative="1" as="geometry">
            <mxPoint x="572.5" y="453" as="sourcePoint" />
            <mxPoint x="613" y="144" as="targetPoint" />
          </mxGeometry>
        </mxCell>
        <mxCell id="wkjAaEU14kWa63xnrsrx-16" value="日志信息更改" style="edgeLabel;html=1;align=center;verticalAlign=middle;resizable=0;points=[];" parent="wkjAaEU14kWa63xnrsrx-15" vertex="1" connectable="0">
          <mxGeometry x="0.0167" relative="1" as="geometry">
            <mxPoint y="4" as="offset" />
          </mxGeometry>
        </mxCell>
        <mxCell id="wkjAaEU14kWa63xnrsrx-18" value="" style="endArrow=classic;html=1;rounded=0;exitX=1;exitY=0.5;exitDx=0;exitDy=0;" parent="WIyWlLk6GJQsqaUBKTNV-1" source="wkjAaEU14kWa63xnrsrx-2" edge="1">
          <mxGeometry width="50" height="50" relative="1" as="geometry">
            <mxPoint x="702.5" y="464" as="sourcePoint" />
            <mxPoint x="1094" y="314" as="targetPoint" />
          </mxGeometry>
        </mxCell>
        <mxCell id="wkjAaEU14kWa63xnrsrx-22" value="进货指令" style="edgeLabel;html=1;align=center;verticalAlign=middle;resizable=0;points=[];" parent="wkjAaEU14kWa63xnrsrx-18" vertex="1" connectable="0">
          <mxGeometry x="-0.0767" y="1" relative="1" as="geometry">
            <mxPoint x="-6" as="offset" />
          </mxGeometry>
        </mxCell>
        <mxCell id="wkjAaEU14kWa63xnrsrx-19" value="" style="endArrow=classic;html=1;rounded=0;exitX=1;exitY=0;exitDx=0;exitDy=0;" parent="WIyWlLk6GJQsqaUBKTNV-1" source="wkjAaEU14kWa63xnrsrx-2" edge="1">
          <mxGeometry width="50" height="50" relative="1" as="geometry">
            <mxPoint x="702.5" y="464" as="sourcePoint" />
            <mxPoint x="1094" y="234" as="targetPoint" />
          </mxGeometry>
        </mxCell>
        <mxCell id="wkjAaEU14kWa63xnrsrx-21" value="购买指令" style="edgeLabel;html=1;align=center;verticalAlign=middle;resizable=0;points=[];" parent="wkjAaEU14kWa63xnrsrx-19" vertex="1" connectable="0">
          <mxGeometry x="-0.0179" y="2" relative="1" as="geometry">
            <mxPoint x="-1" y="2" as="offset" />
          </mxGeometry>
        </mxCell>
        <mxCell id="wkjAaEU14kWa63xnrsrx-20" value="" style="endArrow=classic;html=1;rounded=0;exitX=1;exitY=1;exitDx=0;exitDy=0;" parent="WIyWlLk6GJQsqaUBKTNV-1" source="wkjAaEU14kWa63xnrsrx-2" edge="1">
          <mxGeometry width="50" height="50" relative="1" as="geometry">
            <mxPoint x="702.5" y="464" as="sourcePoint" />
            <mxPoint x="1094" y="394" as="targetPoint" />
          </mxGeometry>
        </mxCell>
        <mxCell id="wkjAaEU14kWa63xnrsrx-23" value="查询指令" style="edgeLabel;html=1;align=center;verticalAlign=middle;resizable=0;points=[];" parent="wkjAaEU14kWa63xnrsrx-20" vertex="1" connectable="0">
          <mxGeometry x="-0.0369" relative="1" as="geometry">
            <mxPoint y="1" as="offset" />
          </mxGeometry>
        </mxCell>
        <mxCell id="LLd6AObdBEuMO7a82ror-0" value="" style="endArrow=classic;html=1;rounded=0;entryX=0;entryY=0.5;entryDx=0;entryDy=0;" parent="WIyWlLk6GJQsqaUBKTNV-1" target="W3gyHLTYfsSeEQZxvCmy-68" edge="1">
          <mxGeometry width="50" height="50" relative="1" as="geometry">
            <mxPoint x="74" y="477" as="sourcePoint" />
            <mxPoint x="278" y="474.29" as="targetPoint" />
          </mxGeometry>
        </mxCell>
        <mxCell id="LLd6AObdBEuMO7a82ror-1" value="登录/注册、购买、进货、查询指令" style="edgeLabel;html=1;align=center;verticalAlign=middle;resizable=0;points=[];" parent="LLd6AObdBEuMO7a82ror-0" vertex="1" connectable="0">
          <mxGeometry x="-0.0642" relative="1" as="geometry">
            <mxPoint x="5" y="-1" as="offset" />
          </mxGeometry>
        </mxCell>
      </root>
    </mxGraphModel>
  </diagram>
</mxfile>
